<?xml version="1.0" standalone="no"?>
<!DOCTYPE svg PUBLIC "-//W3C//DTD SVG 20010904//EN"
 "http://www.w3.org/TR/2001/REC-SVG-20010904/DTD/svg10.dtd">
<svg version="1.0" xmlns="http://www.w3.org/2000/svg"
 width="325.000000pt" height="325.000000pt" viewBox="0 0 325.000000 325.000000"
 preserveAspectRatio="xMidYMid meet">
<metadata>
Created by potrace 1.11, written by Peter Selinger 2001-2013
</metadata>
<g transform="translate(0.000000,325.000000) scale(0.100000,-0.100000)"
fill="#000000" stroke="none">
<path d="M1479 2990 c-107 -201 -139 -252 -161 -261 -34 -14 -61 -5 -188 61
-52 27 -95 48 -97 47 -1 -2 32 -182 73 -401 53 -283 72 -406 66 -424 -9 -29
-38 -43 -68 -31 -12 4 -98 93 -192 198 -95 106 -175 192 -179 192 -4 0 -21
-46 -38 -103 -26 -88 -34 -104 -56 -112 -19 -6 -82 3 -240 37 -118 24 -215 44
-216 43 -1 -1 27 -107 63 -236 35 -129 63 -248 62 -265 -3 -26 -12 -34 -97
-75 l-93 -46 366 -298 c202 -164 371 -306 376 -316 16 -30 12 -69 -20 -174
-17 -55 -29 -101 -27 -102 2 -2 166 15 365 38 276 32 365 39 374 30 10 -10 -4
-366 -29 -709 l-6 -83 103 0 103 0 -6 83 c-25 343 -39 699 -29 709 9 9 98 2
374 -30 199 -23 363 -40 365 -38 2 1 -10 47 -27 102 -32 105 -36 144 -20 174
5 10 174 152 376 316 l366 298 -93 46 c-85 41 -94 49 -97 75 -1 17 27 136 62
265 36 129 64 235 63 236 -1 1 -98 -19 -216 -43 -158 -34 -221 -43 -240 -37
-22 8 -30 24 -56 112 -17 57 -34 103 -38 103 -4 0 -84 -86 -178 -191 -94 -105
-182 -196 -196 -201 -32 -12 -60 3 -67 38 -3 16 26 194 69 423 41 217 73 395
72 397 -2 1 -45 -20 -97 -47 -127 -66 -154 -75 -188 -61 -22 9 -54 61 -161
261 -73 138 -137 250 -141 250 -5 0 -68 -112 -141 -250z"/>
</g>
</svg>
